{
	"asset":{
		"generator":"Khronos glTF Blender I/O v3.6.27",
		"version":"2.0"
	},
	"extensionsUsed":[
		"KHR_lights_punctual"
	],
	"extensionsRequired":[
		"KHR_lights_punctual"
	],
	"extensions":{
		"KHR_lights_punctual":{
			"lights":[
				{
					"color":[
						1,
						1,
						1
					],
					"intensity":271757.0653294113,
					"type":"point",
					"name":"Light"
				},
				{
					"color":[
						1,
						1,
						1
					],
					"intensity":271757.0653294113,
					"type":"point",
					"name":"Light.001"
				}
			]
		}
	},
	"scene":0,
	"scenes":[
		{
			"name":"Scene",
			"nodes":[
				0,
				1,
				2,
				3,
				4,
				5,
				6,
				7
			]
		}
	],
	"nodes":[
		{
			"extensions":{
				"KHR_lights_punctual":{
					"light":0
				}
			},
			"name":"Light",
			"rotation":[
				-0.28416627645492554,
				0.7269423007965088,
				0.34203392267227173,
				0.5232754945755005
			],
			"translation":[
				-15.060876846313477,
				31.293041229248047,
				7.693639755249023
			]
		},
		{
			"camera":0,
			"name":"Camera",
			"rotation":[
				-0.16240614652633667,
				-0.7808169722557068,
				-0.22685058414936066,
				0.5590061545372009
			],
			"translation":[
				-63.13153076171875,
				52.66277313232422,
				-37.947505950927734
			]
		},
		{
			"mesh":0,
			"name":"Sphere-col",
			"scale":[
				6.621786594390869,
				6.621786594390869,
				6.621786594390869
			],
			"translation":[
				0,
				5.349767684936523,
				0
			]
		},
		{
			"mesh":1,
			"name":"Cube.001",
			"scale":[
				3.767963409423828,
				3.767963409423828,
				3.767963409423828
			],
			"translation":[
				0,
				4,
				-11
			]
		},
		{
			"mesh":2,
			"name":"Cube",
			"translation":[
				-0.0364193320274353,
				24.948841094970703,
				-33
			]
		},
		{
			"mesh":3,
			"name":"Cylinder",
			"rotation":[
				0,
				0,
				0.7071068286895752,
				0.7071068286895752
			],
			"scale":[
				1.1225645542144775,
				4.416182518005371,
				1.1225645542144775
			],
			"translation":[
				0,
				8.37051010131836,
				-7.944853782653809
			]
		},
		{
			"mesh":4,
			"name":"Plane",
			"scale":[
				63.97950744628906,
				63.97950744628906,
				63.97950744628906
			],
			"translation":[
				20.237144470214844,
				0,
				3.401897430419922
			]
		},
		{
			"extensions":{
				"KHR_lights_punctual":{
					"light":1
				}
			},
			"name":"Light.001",
			"rotation":[
				-0.28416627645492554,
				0.7269423007965088,
				0.34203392267227173,
				0.5232754945755005
			],
			"translation":[
				-14.173446655273438,
				31.293039321899414,
				-47.45520782470703
			]
		}
	],
	"cameras":[
		{
			"name":"Camera",
			"perspective":{
				"aspectRatio":1.3333333333333333,
				"yfov":0.5476272041672083,
				"zfar":500,
				"znear":0.10000000149011612
			},
			"type":"perspective"
		}
	],
	"animations":[
		{
			"channels":[
				{
					"sampler":0,
					"target":{
						"node":4,
						"path":"translation"
					}
				},
				{
					"sampler":1,
					"target":{
						"node":4,
						"path":"rotation"
					}
				}
			],
			"name":"CubeAction.001",
			"samplers":[
				{
					"input":23,
					"interpolation":"LINEAR",
					"output":24
				},
				{
					"input":23,
					"interpolation":"LINEAR",
					"output":25
				}
			]
		}
	],
	"materials":[
		{
			"doubleSided":true,
			"name":"Material.001",
			"pbrMetallicRoughness":{
				"baseColorFactor":[
					0.008452331647276878,
					0.31081247329711914,
					0.0457271970808506,
					1
				],
				"metallicFactor":0,
				"roughnessFactor":0.5
			}
		},
		{
			"doubleSided":true,
			"name":"Material.002",
			"pbrMetallicRoughness":{
				"baseColorFactor":[
					0.3372921049594879,
					0.42922601103782654,
					0.0157946590334177,
					1
				],
				"metallicFactor":0,
				"roughnessFactor":0.5
			}
		},
		{
			"doubleSided":true,
			"name":"Material.003",
			"pbrMetallicRoughness":{
				"baseColorFactor":[
					0.533265233039856,
					0.8000000715255737,
					0.7319304347038269,
					1
				],
				"metallicFactor":0,
				"roughnessFactor":0.5
			}
		},
		{
			"doubleSided":true,
			"name":"Material.004",
			"pbrMetallicRoughness":{
				"baseColorFactor":[
					0.3372921049594879,
					0.42922601103782654,
					0.015794632956385612,
					1
				],
				"metallicFactor":0,
				"roughnessFactor":0.5
			}
		},
		{
			"doubleSided":true,
			"name":"Material.005",
			"pbrMetallicRoughness":{
				"baseColorFactor":[
					0.8000000715255737,
					0.42576470971107483,
					0.6935209035873413,
					1
				],
				"metallicFactor":0,
				"roughnessFactor":0.5
			}
		}
	],
	"meshes":[
		{
			"name":"Sphere",
			"primitives":[
				{
					"attributes":{
						"POSITION":0,
						"NORMAL":1,
						"TEXCOORD_0":2,
						"TANGENT":3
					},
					"indices":4,
					"material":0
				}
			]
		},
		{
			"name":"Cube.002",
			"primitives":[
				{
					"attributes":{
						"POSITION":5,
						"NORMAL":6,
						"TEXCOORD_0":7,
						"TANGENT":8
					},
					"indices":9,
					"material":1
				}
			]
		},
		{
			"name":"Cube",
			"primitives":[
				{
					"attributes":{
						"POSITION":10,
						"NORMAL":11,
						"TEXCOORD_0":12,
						"TANGENT":13
					},
					"indices":14,
					"material":2
				}
			]
		},
		{
			"name":"Cylinder",
			"primitives":[
				{
					"attributes":{
						"POSITION":15,
						"NORMAL":16,
						"TEXCOORD_0":17
					},
					"indices":18,
					"material":3
				}
			]
		},
		{
			"name":"Plane",
			"primitives":[
				{
					"attributes":{
						"POSITION":19,
						"NORMAL":20,
						"TEXCOORD_0":21
					},
					"indices":22,
					"material":4
				}
			]
		}
	],
	"accessors":[
		{
			"bufferView":0,
			"componentType":5126,
			"count":48858,
			"max":[
				0.9872310161590576,
				0.36055365204811096,
				1.5574883222579956
			],
			"min":[
				-0.9872305393218994,
				-0.815708339214325,
				-0.9872310161590576
			],
			"type":"VEC3"
		},
		{
			"bufferView":1,
			"componentType":5126,
			"count":48858,
			"type":"VEC3"
		},
		{
			"bufferView":2,
			"componentType":5126,
			"count":48858,
			"type":"VEC2"
		},
		{
			"bufferView":3,
			"componentType":5126,
			"count":48858,
			"type":"VEC4"
		},
		{
			"bufferView":4,
			"componentType":5123,
			"count":73344,
			"type":"SCALAR"
		},
		{
			"bufferView":5,
			"componentType":5126,
			"count":64,
			"max":[
				1,
				5.221766948699951,
				1
			],
			"min":[
				-1,
				-1,
				-7
			],
			"type":"VEC3"
		},
		{
			"bufferView":6,
			"componentType":5126,
			"count":64,
			"type":"VEC3"
		},
		{
			"bufferView":7,
			"componentType":5126,
			"count":64,
			"type":"VEC2"
		},
		{
			"bufferView":8,
			"componentType":5126,
			"count":64,
			"type":"VEC4"
		},
		{
			"bufferView":9,
			"componentType":5123,
			"count":108,
			"type":"SCALAR"
		},
		{
			"bufferView":10,
			"componentType":5126,
			"count":96,
			"max":[
				1,
				1,
				1
			],
			"min":[
				-1,
				-1,
				-1
			],
			"type":"VEC3"
		},
		{
			"bufferView":11,
			"componentType":5126,
			"count":96,
			"type":"VEC3"
		},
		{
			"bufferView":12,
			"componentType":5126,
			"count":96,
			"type":"VEC2"
		},
		{
			"bufferView":13,
			"componentType":5126,
			"count":96,
			"type":"VEC4"
		},
		{
			"bufferView":14,
			"componentType":5123,
			"count":132,
			"type":"SCALAR"
		},
		{
			"bufferView":15,
			"componentType":5126,
			"count":192,
			"max":[
				1,
				1,
				1
			],
			"min":[
				-1,
				-1,
				-1
			],
			"type":"VEC3"
		},
		{
			"bufferView":16,
			"componentType":5126,
			"count":192,
			"type":"VEC3"
		},
		{
			"bufferView":17,
			"componentType":5126,
			"count":192,
			"type":"VEC2"
		},
		{
			"bufferView":18,
			"componentType":5123,
			"count":372,
			"type":"SCALAR"
		},
		{
			"bufferView":19,
			"componentType":5126,
			"count":279,
			"max":[
				1,
				1.1003599166870117,
				1
			],
			"min":[
				-1,
				0,
				-1
			],
			"type":"VEC3"
		},
		{
			"bufferView":20,
			"componentType":5126,
			"count":279,
			"type":"VEC3"
		},
		{
			"bufferView":21,
			"componentType":5126,
			"count":279,
			"type":"VEC2"
		},
		{
			"bufferView":22,
			"componentType":5123,
			"count":1470,
			"type":"SCALAR"
		},
		{
			"bufferView":23,
			"componentType":5126,
			"count":250,
			"max":[
				10.416666666666666
			],
			"min":[
				0.041666666666666664
			],
			"type":"SCALAR"
		},
		{
			"bufferView":24,
			"componentType":5126,
			"count":250,
			"type":"VEC3"
		},
		{
			"bufferView":25,
			"componentType":5126,
			"count":250,
			"type":"VEC4"
		}
	],
	"bufferViews":[
		{
			"buffer":0,
			"byteLength":586296,
			"byteOffset":0,
			"target":34962
		},
		{
			"buffer":0,
			"byteLength":586296,
			"byteOffset":586296,
			"target":34962
		},
		{
			"buffer":0,
			"byteLength":390864,
			"byteOffset":1172592,
			"target":34962
		},
		{
			"buffer":0,
			"byteLength":781728,
			"byteOffset":1563456,
			"target":34962
		},
		{
			"buffer":0,
			"byteLength":146688,
			"byteOffset":2345184,
			"target":34963
		},
		{
			"buffer":0,
			"byteLength":768,
			"byteOffset":2491872,
			"target":34962
		},
		{
			"buffer":0,
			"byteLength":768,
			"byteOffset":2492640,
			"target":34962
		},
		{
			"buffer":0,
			"byteLength":512,
			"byteOffset":2493408,
			"target":34962
		},
		{
			"buffer":0,
			"byteLength":1024,
			"byteOffset":2493920,
			"target":34962
		},
		{
			"buffer":0,
			"byteLength":216,
			"byteOffset":2494944,
			"target":34963
		},
		{
			"buffer":0,
			"byteLength":1152,
			"byteOffset":2495160,
			"target":34962
		},
		{
			"buffer":0,
			"byteLength":1152,
			"byteOffset":2496312,
			"target":34962
		},
		{
			"buffer":0,
			"byteLength":768,
			"byteOffset":2497464,
			"target":34962
		},
		{
			"buffer":0,
			"byteLength":1536,
			"byteOffset":2498232,
			"target":34962
		},
		{
			"buffer":0,
			"byteLength":264,
			"byteOffset":2499768,
			"target":34963
		},
		{
			"buffer":0,
			"byteLength":2304,
			"byteOffset":2500032,
			"target":34962
		},
		{
			"buffer":0,
			"byteLength":2304,
			"byteOffset":2502336,
			"target":34962
		},
		{
			"buffer":0,
			"byteLength":1536,
			"byteOffset":2504640,
			"target":34962
		},
		{
			"buffer":0,
			"byteLength":744,
			"byteOffset":2506176,
			"target":34963
		},
		{
			"buffer":0,
			"byteLength":3348,
			"byteOffset":2506920,
			"target":34962
		},
		{
			"buffer":0,
			"byteLength":3348,
			"byteOffset":2510268,
			"target":34962
		},
		{
			"buffer":0,
			"byteLength":2232,
			"byteOffset":2513616,
			"target":34962
		},
		{
			"buffer":0,
			"byteLength":2940,
			"byteOffset":2515848,
			"target":34963
		},
		{
			"buffer":0,
			"byteLength":1000,
			"byteOffset":2518788
		},
		{
			"buffer":0,
			"byteLength":3000,
			"byteOffset":2519788
		},
		{
			"buffer":0,
			"byteLength":4000,
			"byteOffset":2522788
		}
	],
	"buffers":[
		{
			"byteLength":2526788,
			"uri":"blender_stuff-130c9c2d382e739d44f9d713d2359807.bin"
		}
	]
}
