{
	"asset":{
		"generator":"Khronos glTF Blender I/O v3.6.27",
		"version":"2.0"
	},
	"scene":0,
	"scenes":[
		{
			"name":"Scene",
			"nodes":[
				0
			]
		}
	],
	"nodes":[
		{
			"mesh":0,
			"name":"imp-col",
			"rotation":[
				0.7071068286895752,
				0,
				0,
				0.7071068286895752
			]
		}
	],
	"materials":[
		{
			"doubleSided":true,
			"name":"place_holder",
			"pbrMetallicRoughness":{
				"metallicFactor":0
			}
		}
	],
	"meshes":[
		{
			"name":"remeshed",
			"primitives":[
				{
					"attributes":{
						"POSITION":0,
						"NORMAL":1,
						"TEXCOORD_0":2,
						"TANGENT":3
					},
					"indices":4,
					"material":0
				}
			]
		}
	],
	"accessors":[
		{
			"bufferView":0,
			"componentType":5126,
			"count":13785,
			"max":[
				0.8662390112876892,
				0.472696989774704,
				0.9434360265731812
			],
			"min":[
				-0.8631529808044434,
				-0.5325239896774292,
				-0.9189770221710205
			],
			"type":"VEC3"
		},
		{
			"bufferView":1,
			"componentType":5126,
			"count":13785,
			"type":"VEC3"
		},
		{
			"bufferView":2,
			"componentType":5126,
			"count":13785,
			"type":"VEC2"
		},
		{
			"bufferView":3,
			"componentType":5126,
			"count":13785,
			"type":"VEC4"
		},
		{
			"bufferView":4,
			"componentType":5123,
			"count":56880,
			"type":"SCALAR"
		}
	],
	"bufferViews":[
		{
			"buffer":0,
			"byteLength":165420,
			"byteOffset":0,
			"target":34962
		},
		{
			"buffer":0,
			"byteLength":165420,
			"byteOffset":165420,
			"target":34962
		},
		{
			"buffer":0,
			"byteLength":110280,
			"byteOffset":330840,
			"target":34962
		},
		{
			"buffer":0,
			"byteLength":220560,
			"byteOffset":441120,
			"target":34962
		},
		{
			"buffer":0,
			"byteLength":113760,
			"byteOffset":661680,
			"target":34963
		}
	],
	"buffers":[
		{
			"byteLength":775440,
			"uri":"imp-ab814171264bb700fbf5aec4a405160e.bin"
		}
	]
}
