{
	"asset":{
		"generator":"Khronos glTF Blender I/O v3.6.27",
		"version":"2.0"
	},
	"extensionsUsed":[
		"KHR_lights_punctual"
	],
	"extensionsRequired":[
		"KHR_lights_punctual"
	],
	"extensions":{
		"KHR_lights_punctual":{
			"lights":[
				{
					"color":[
						1,
						1,
						1
					],
					"intensity":683,
					"type":"directional",
					"name":"Sun"
				}
			]
		}
	},
	"scene":0,
	"scenes":[
		{
			"extras":{
				"GData":{},
				"favs":1,
				"previews_dir":"M:\\modelaje\\texturas\\_HDRi\\Painter\\",
				"previews_list":[
					"Exterior\\bonifacio_aragon_stairs.exr",
					"Exterior\\bonifacio_street.exr",
					"Exterior\\cave_entry_in_the_forest.exr",
					"Exterior\\corsica_beach.exr",
					"Exterior\\Gdansk_shipyard_buildings.exr",
					"Exterior\\glazed_patio.exr",
					"Exterior\\mondarrain_3.exr",
					"Exterior\\over_the_clouds.exr",
					"Exterior\\panorama.hdr",
					"Exterior\\villa_nova_street.exr",
					"Interior\\bus_garage.exr",
					"Interior\\tomoco_studio.exr",
					"Studio\\Soft_1Front.exr",
					"Studio\\Soft_1Front_2Backs.exr",
					"Studio\\Soft_1LowContrastFront.exr",
					"Studio\\Soft_1LowContrastFront_2Backs.exr",
					"Studio\\Soft_2RingHighContrast.exr",
					"Studio\\Soft_2RingLowContrast.exr",
					"Studio\\Soft_4TubeBank_2BlackFlags.exr",
					"Studio\\Soft_5DaylightStudio.exr",
					"Studio\\studio_02.exr",
					"Studio\\studio_03.exr",
					"Studio\\studio_05.exr"
				],
				"sub_dirs":1,
				"recursive_search":1,
				"prev":0,
				"set_projection":0,
				"flip_fluid":{
					"is_custom_icons_loaded":1
				},
				"flip_fluid_material_library":{
					"library_path":"C:\\Users\\Julio\\AppData\\Roaming\\Blender Foundation\\Blender\\2.80\\scripts\\addons\\flip_fluids_addon\\materials\\material_library",
					"material_list":[
						{
							"name":"FF Apple Juice",
							"description":"",
							"path":"C:\\Users\\Julio\\AppData\\Roaming\\Blender Foundation\\Blender\\2.80\\scripts\\addons\\flip_fluids_addon\\materials\\material_library\\surface\\FF Apple Juice.blend",
							"type":0,
							"icon_id":1619,
							"imported_icon_id":1620
						},
						{
							"name":"FF Beer",
							"description":"",
							"path":"C:\\Users\\Julio\\AppData\\Roaming\\Blender Foundation\\Blender\\2.80\\scripts\\addons\\flip_fluids_addon\\materials\\material_library\\surface\\FF Beer.blend",
							"type":0,
							"icon_id":1621,
							"imported_icon_id":1622
						},
						{
							"name":"FF Blood",
							"description":"",
							"path":"C:\\Users\\Julio\\AppData\\Roaming\\Blender Foundation\\Blender\\2.80\\scripts\\addons\\flip_fluids_addon\\materials\\material_library\\surface\\FF Blood.blend",
							"type":0,
							"icon_id":1623,
							"imported_icon_id":1624
						},
						{
							"name":"FF Caramel",
							"description":"",
							"path":"C:\\Users\\Julio\\AppData\\Roaming\\Blender Foundation\\Blender\\2.80\\scripts\\addons\\flip_fluids_addon\\materials\\material_library\\surface\\FF Caramel.blend",
							"type":0,
							"icon_id":1625,
							"imported_icon_id":1626
						},
						{
							"name":"FF Chocolate",
							"description":"",
							"path":"C:\\Users\\Julio\\AppData\\Roaming\\Blender Foundation\\Blender\\2.80\\scripts\\addons\\flip_fluids_addon\\materials\\material_library\\surface\\FF Chocolate.blend",
							"type":0,
							"icon_id":1627,
							"imported_icon_id":1628
						},
						{
							"name":"FF Coffee",
							"description":"",
							"path":"C:\\Users\\Julio\\AppData\\Roaming\\Blender Foundation\\Blender\\2.80\\scripts\\addons\\flip_fluids_addon\\materials\\material_library\\surface\\FF Coffee.blend",
							"type":0,
							"icon_id":1629,
							"imported_icon_id":1630
						},
						{
							"name":"FF Copper",
							"description":"",
							"path":"C:\\Users\\Julio\\AppData\\Roaming\\Blender Foundation\\Blender\\2.80\\scripts\\addons\\flip_fluids_addon\\materials\\material_library\\surface\\FF Copper.blend",
							"type":0,
							"icon_id":1631,
							"imported_icon_id":1632
						},
						{
							"name":"FF Milk",
							"description":"",
							"path":"C:\\Users\\Julio\\AppData\\Roaming\\Blender Foundation\\Blender\\2.80\\scripts\\addons\\flip_fluids_addon\\materials\\material_library\\surface\\FF Milk.blend",
							"type":0,
							"icon_id":1633,
							"imported_icon_id":1634
						},
						{
							"name":"FF Orange Juice",
							"description":"",
							"path":"C:\\Users\\Julio\\AppData\\Roaming\\Blender Foundation\\Blender\\2.80\\scripts\\addons\\flip_fluids_addon\\materials\\material_library\\surface\\FF Orange Juice.blend",
							"type":0,
							"icon_id":1635,
							"imported_icon_id":1636
						},
						{
							"name":"FF Water (clear)",
							"description":"",
							"path":"C:\\Users\\Julio\\AppData\\Roaming\\Blender Foundation\\Blender\\2.80\\scripts\\addons\\flip_fluids_addon\\materials\\material_library\\surface\\FF Water (clear).blend",
							"type":0,
							"icon_id":1637,
							"imported_icon_id":1638
						},
						{
							"name":"FF Water (iced)",
							"description":"",
							"path":"C:\\Users\\Julio\\AppData\\Roaming\\Blender Foundation\\Blender\\2.80\\scripts\\addons\\flip_fluids_addon\\materials\\material_library\\surface\\FF Water (iced).blend",
							"type":0,
							"icon_id":1639,
							"imported_icon_id":1640
						},
						{
							"name":"FF Water (ocean 1)",
							"description":"",
							"path":"C:\\Users\\Julio\\AppData\\Roaming\\Blender Foundation\\Blender\\2.80\\scripts\\addons\\flip_fluids_addon\\materials\\material_library\\surface\\FF Water (ocean 1).blend",
							"type":0,
							"icon_id":1641,
							"imported_icon_id":1642
						},
						{
							"name":"FF Water (ocean 2)",
							"description":"",
							"path":"C:\\Users\\Julio\\AppData\\Roaming\\Blender Foundation\\Blender\\2.80\\scripts\\addons\\flip_fluids_addon\\materials\\material_library\\surface\\FF Water (ocean 2).blend",
							"type":0,
							"icon_id":1643,
							"imported_icon_id":1644
						},
						{
							"name":"FF Water (ocean volumetric)",
							"description":"",
							"path":"C:\\Users\\Julio\\AppData\\Roaming\\Blender Foundation\\Blender\\2.80\\scripts\\addons\\flip_fluids_addon\\materials\\material_library\\surface\\FF Water (ocean volumetric).blend",
							"type":0,
							"icon_id":1645,
							"imported_icon_id":1646
						},
						{
							"name":"FF Wax",
							"description":"",
							"path":"C:\\Users\\Julio\\AppData\\Roaming\\Blender Foundation\\Blender\\2.80\\scripts\\addons\\flip_fluids_addon\\materials\\material_library\\surface\\FF Wax.blend",
							"type":0,
							"icon_id":1647,
							"imported_icon_id":1648
						},
						{
							"name":"FF Wine Red",
							"description":"",
							"path":"C:\\Users\\Julio\\AppData\\Roaming\\Blender Foundation\\Blender\\2.80\\scripts\\addons\\flip_fluids_addon\\materials\\material_library\\surface\\FF Wine Red.blend",
							"type":0,
							"icon_id":1649,
							"imported_icon_id":1650
						},
						{
							"name":"FF Bubble",
							"description":"",
							"path":"C:\\Users\\Julio\\AppData\\Roaming\\Blender Foundation\\Blender\\2.80\\scripts\\addons\\flip_fluids_addon\\materials\\material_library\\whitewater\\FF Bubble.blend",
							"type":1,
							"icon_id":1651,
							"imported_icon_id":1652
						},
						{
							"name":"FF Foam",
							"description":"",
							"path":"C:\\Users\\Julio\\AppData\\Roaming\\Blender Foundation\\Blender\\2.80\\scripts\\addons\\flip_fluids_addon\\materials\\material_library\\whitewater\\FF Foam.blend",
							"type":1,
							"icon_id":1653,
							"imported_icon_id":1654
						},
						{
							"name":"FF Spray",
							"description":"",
							"path":"C:\\Users\\Julio\\AppData\\Roaming\\Blender Foundation\\Blender\\2.80\\scripts\\addons\\flip_fluids_addon\\materials\\material_library\\whitewater\\FF Spray.blend",
							"type":1,
							"icon_id":1655,
							"imported_icon_id":1656
						}
					]
				},
				"DM":{
					"revision":"d81d453ac57c9697dd75cef89377cdc20236fd9a"
				},
				"kitops":{},
				"modal_gp_curves":{},
				"M3":{},
				"MM":{
					"revision":"9dea2e13ac59189c013df8ee84a5bd205c4faf6d"
				},
				"pl_studio_props":{},
				"blenderkitUI":{
					"assetbar_on":0,
					"turn_off":0,
					"down_up":1,
					"dragging":0,
					"margin":0,
					"thumb_size":93,
					"bar_x":72,
					"bar_end":553,
					"bar_width":803,
					"wcount":8,
					"hcount":0,
					"bar_height":0,
					"bar_y":949,
					"reports_y":349,
					"reports_x":72,
					"rating_x":72,
					"rating_y":949,
					"mouse_x":0,
					"mouse_y":1027,
					"draw_tooltip":0,
					"tooltip":"",
					"active_index":-3,
					"draw_drag_image":0,
					"draw_snapped_bounds":0,
					"has_hit":0
				},
				"texToolsSettings":{},
				"uuid":"c3aec975-dd1a-4c12-a5cd-bafe5745e355",
				"assets reported":{},
				"svg_export":{},
				"atomic":{
					"active_inspection":3,
					"materials":0,
					"collections":0,
					"images":0,
					"lights":0,
					"node_groups":0,
					"particles":0,
					"textures":0,
					"worlds":0
				},
				"blenderkit_mat":{},
				"search results":[],
				"NWBusyDrawing":"",
				"NWLazySource":"RGB Curves",
				"NWLazyTarget":"RGB Curves"
			},
			"name":"Scene",
			"nodes":[
				0,
				1,
				2
			]
		}
	],
	"nodes":[
		{
			"extras":{
				"kitops":{},
				"MM":{},
				"hops":{},
				"DM":{}
			},
			"mesh":0,
			"name":"Assets",
			"translation":[
				3.183044672012329,
				0.4544863700866699,
				-0.44733190536499023
			]
		},
		{
			"camera":0,
			"extras":{
				"kitops":{},
				"MM":{},
				"hops":{},
				"DM":{}
			},
			"name":"Camera",
			"rotation":[
				-0.16523610055446625,
				-0.40414613485336304,
				-0.07448377460241318,
				0.8965573906898499
			],
			"translation":[
				-8.137639999389648,
				5.225039482116699,
				6.832655429840088
			]
		},
		{
			"extensions":{
				"KHR_lights_punctual":{
					"light":0
				}
			},
			"extras":{
				"kitops":{},
				"MM":{},
				"hops":{},
				"DM":{}
			},
			"name":"Sun",
			"rotation":[
				-0.4902760982513428,
				-0.2411995530128479,
				0.044538743793964386,
				0.8363423347473145
			],
			"translation":[
				-0.9676449298858643,
				3.8158161640167236,
				3.798180103302002
			]
		}
	],
	"cameras":[
		{
			"extras":{
				"photographer":{
					"preview_color":[
						1.0,
						1.0,
						1.0
					],
					"preview_color_tint":[
						1.0,
						1.0,
						1.0
					]
				}
			},
			"name":"Camera",
			"perspective":{
				"aspectRatio":1.7777777777777777,
				"yfov":0.39959652046304894,
				"zfar":1000,
				"znear":0.10000000149011612
			},
			"type":"perspective"
		}
	],
	"materials":[
		{
			"doubleSided":true,
			"extras":{
				"blenderkit":{},
				"DM":{}
			},
			"name":"Grass 02",
			"normalTexture":{
				"index":0,
				"scale":1.100000023841858
			},
			"pbrMetallicRoughness":{
				"baseColorTexture":{
					"index":1
				},
				"metallicRoughnessTexture":{
					"index":2
				}
			}
		}
	],
	"meshes":[
		{
			"name":"Sphere",
			"primitives":[
				{
					"attributes":{
						"POSITION":0,
						"NORMAL":1,
						"TEXCOORD_0":2,
						"TANGENT":3
					},
					"indices":4,
					"material":0
				}
			]
		}
	],
	"textures":[
		{
			"sampler":0,
			"source":0
		},
		{
			"sampler":0,
			"source":1
		},
		{
			"sampler":0,
			"source":2
		}
	],
	"images":[
		{
			"mimeType":"image/jpeg",
			"name":"Grass02_Normal.jpg",
			"uri":"../../assets/bricks_and_ground/4k%20JPEG/Grass%2002/Grass02_Normal.jpg"
		},
		{
			"mimeType":"image/jpeg",
			"name":"Grass03_Base Color.jpg",
			"uri":"../../assets/bricks_and_ground/4k%20JPEG/Grass%2002/Grass03_Base%20Color.jpg"
		},
		{
			"mimeType":"image/jpeg",
			"name":"Grass02_Roughness.jpg",
			"uri":"../../assets/bricks_and_ground/4k%20JPEG/Grass%2002/Grass02_Roughness.jpg"
		}
	],
	"accessors":[
		{
			"bufferView":0,
			"componentType":5126,
			"count":105834,
			"max":[
				0.9872313737869263,
				0.9999995827674866,
				1.0742539167404175
			],
			"min":[
				-8.112358093261719,
				-1.0000004768371582,
				-1
			],
			"type":"VEC3"
		},
		{
			"bufferView":1,
			"componentType":5126,
			"count":105834,
			"type":"VEC3"
		},
		{
			"bufferView":2,
			"componentType":5126,
			"count":105834,
			"type":"VEC2"
		},
		{
			"bufferView":3,
			"componentType":5126,
			"count":105834,
			"type":"VEC4"
		},
		{
			"bufferView":4,
			"componentType":5125,
			"count":579840,
			"type":"SCALAR"
		}
	],
	"bufferViews":[
		{
			"buffer":0,
			"byteLength":1270008,
			"byteOffset":0,
			"target":34962
		},
		{
			"buffer":0,
			"byteLength":1270008,
			"byteOffset":1270008,
			"target":34962
		},
		{
			"buffer":0,
			"byteLength":846672,
			"byteOffset":2540016,
			"target":34962
		},
		{
			"buffer":0,
			"byteLength":1693344,
			"byteOffset":3386688,
			"target":34962
		},
		{
			"buffer":0,
			"byteLength":2319360,
			"byteOffset":5080032,
			"target":34963
		}
	],
	"samplers":[
		{
			"magFilter":9729,
			"minFilter":9987
		}
	],
	"buffers":[
		{
			"byteLength":7399392,
			"uri":"Materials_PS_01-4ec97a0013b17952fde35de319461746.bin"
		}
	]
}
